<?xml version="1.0" standalone="no"?><!DOCTYPE svg PUBLIC "-//W3C//DTD SVG 1.1//EN" "http://www.w3.org/Graphics/SVG/1.1/DTD/svg11.dtd"><svg width="100%" height="100%" viewBox="0 0 54 54" version="1.1" xmlns="http://www.w3.org/2000/svg" xmlns:xlink="http://www.w3.org/1999/xlink" xml:space="preserve" style="fill-rule:evenodd;clip-rule:evenodd;stroke-linejoin:round;stroke-miterlimit:1.41421;"><g id="big-reading"><path id="front-cover" d="M45,3c0,-1.656 -1.344,-3 -3,-3l-33,0c-1.656,0 -3,1.344 -3,3l0,45c0,1.656 1.344,3 3,3l33,0c1.656,0 3,-1.344 3,-3l0,-45Z" style="fill:#bf8a4c;"/><path d="M42.004,51c1.654,0 2.996,-1.343 2.996,-3l0,-45c0,-0.774 -0.291,-1.477 -0.768,-2.008l2.814,2.814c0.587,0.547 0.954,1.328 0.954,2.194l0,45c0,1.657 -1.343,3 -3,3l-34,0c-0.564,0 -1.074,-0.234 -1.437,-0.609l-2.723,-3.306c0.544,0.565 1.309,0.915 2.156,0.915l33.008,0ZM13,0l5,0l0,15l-2.5,-2l-2.5,2l0,-15Z" style="fill:#8c6538;"/></g></svg>