<?xml version="1.0" standalone="no"?><!DOCTYPE svg PUBLIC "-//W3C//DTD SVG 1.1//EN" "http://www.w3.org/Graphics/SVG/1.1/DTD/svg11.dtd"><svg width="100%" height="100%" viewBox="0 0 54 54" version="1.1" xmlns="http://www.w3.org/2000/svg" xmlns:xlink="http://www.w3.org/1999/xlink" xml:space="preserve" style="fill-rule:evenodd;clip-rule:evenodd;stroke-linejoin:round;stroke-miterlimit:1.41421;"><g id="big-shopping"><path id="sheet" d="M51,0l-3,0l-38.996,0c-1.654,0 -3.004,1.343 -3.004,3l0,47l35.499,0c0.277,0 0.501,0.232 0.501,0.5l0,0.5c0,1.657 1.343,3 3,3l-21.002,0l20.997,0c1.658,0 3.005,-1.343 3.005,-3l0,-48c0,-1.657 1.343,-3 3,-3Z" style="fill:#b467eb;"/><path d="M45,54l-42,0c-1.657,0 -3,-1.343 -3,-3l0,-0.5c0,-0.276 0.226,-0.5 0.501,-0.5l40.998,0c0.277,0 0.501,0.232 0.501,0.5l0,0.5c0,1.657 1.343,3 3,3ZM40.003,27l-26.006,0c-0.551,0 -0.997,-0.443 -0.997,-0.999l0,-1.002c0,-0.552 0.44,-0.999 0.997,-0.999l26.006,0c0.551,0 0.997,0.443 0.997,0.999l0,1.002c0,0.552 -0.44,0.999 -0.997,0.999ZM40.003,20l-26.006,0c-0.551,0 -0.997,-0.443 -0.997,-0.999l0,-1.002c0,-0.552 0.44,-0.999 0.997,-0.999l26.006,0c0.551,0 0.997,0.443 0.997,0.999l0,1.002c0,0.552 -0.44,0.999 -0.997,0.999ZM40.003,13l-26.006,0c-0.551,0 -0.997,-0.443 -0.997,-0.999l0,-1.002c0,-0.552 0.44,-0.999 0.997,-0.999l26.006,0c0.551,0 0.997,0.443 0.997,0.999l0,1.002c0,0.552 -0.44,0.999 -0.997,0.999ZM53.509,4l-5.509,0l0,-1l0,0c0,-1.657 1.343,-3 3,-3c1.657,0 3,1.343 3,3l0,0l0,0.5c0,0.276 -0.228,0.5 -0.491,0.5Z" style="fill:#8d51b8;"/></g></svg>