<?xml version="1.0" standalone="no"?><!DOCTYPE svg PUBLIC "-//W3C//DTD SVG 1.1//EN" "http://www.w3.org/Graphics/SVG/1.1/DTD/svg11.dtd"><svg width="100%" height="100%" viewBox="0 0 48 54" version="1.1" xmlns="http://www.w3.org/2000/svg" xmlns:xlink="http://www.w3.org/1999/xlink" xml:space="preserve" style="fill-rule:evenodd;clip-rule:evenodd;stroke-linejoin:round;stroke-miterlimit:1.41421;"><g id="big-notes"><g><path id="back-page" d="M42.358,2c0,-1.104 -0.896,-2 -2,-2l-38,0c-1.104,0 -2,0.896 -2,2l0,50c0,1.104 0.896,2 2,2l38,0c1.104,0 2,-0.896 2,-2l0,-50Z" style="fill:#f3ce00;"/><path d="M46.558,51l-38.197,0c-1.106,0 -2.509,-0.733 -3.049,-1.69c0,0 -2.065,-1.939 -3.806,-13.305c-0.678,-4.419 -1.148,-10.006 -1.148,-17.005c0,-6 0,-14 0,-14l42,0l0,14c0,0.699 0.005,1.385 0.014,2.056c0.317,23.33 5.032,28.428 5.032,28.428c0.527,0.837 0.149,1.516 -0.846,1.516ZM34.362,29c0.557,0 0.996,-0.447 0.996,-0.999l0,-1.002c0,-0.556 -0.446,-0.999 -0.996,-0.999l-26.007,0c-0.557,0 -0.997,0.447 -0.997,0.999l0,1.002c0,0.556 0.446,0.999 0.997,0.999l26.007,0ZM34.362,22c0.557,0 0.996,-0.447 0.996,-0.999l0,-1.002c0,-0.556 -0.446,-0.999 -0.996,-0.999l-26.007,0c-0.557,0 -0.997,0.447 -0.997,0.999l0,1.002c0,0.556 0.446,0.999 0.997,0.999l26.007,0ZM34.362,15c0.557,0 0.996,-0.447 0.996,-0.999l0,-1.002c0,-0.556 -0.446,-0.999 -0.996,-0.999l-26.007,0c-0.557,0 -0.997,0.447 -0.997,0.999l0,1.002c0,0.556 0.446,0.999 0.997,0.999l26.007,0Z" style="fill:#ffe54c;"/></g></g></svg>