<?xml version="1.0" standalone="no"?><!DOCTYPE svg PUBLIC "-//W3C//DTD SVG 1.1//EN" "http://www.w3.org/Graphics/SVG/1.1/DTD/svg11.dtd"><svg width="100%" height="100%" viewBox="0 0 18 18" version="1.1" xmlns="http://www.w3.org/2000/svg" xmlns:xlink="http://www.w3.org/1999/xlink" xml:space="preserve" style="fill-rule:evenodd;clip-rule:evenodd;stroke-linejoin:round;stroke-miterlimit:1.41421;"><path d="M9,6.08l5.475,-5.475c0.806,-0.807 2.114,-0.807 2.92,0c0.807,0.806 0.807,2.114 0,2.92l-5.475,5.475l5.475,5.475c0.807,0.806 0.807,2.114 0,2.92c-0.806,0.807 -2.114,0.807 -2.92,0l-5.475,-5.475l-5.475,5.475c-0.806,0.807 -2.114,0.807 -2.92,0c-0.807,-0.806 -0.807,-2.114 0,-2.92l5.475,-5.475l-5.475,-5.475c-0.807,-0.806 -0.807,-2.114 0,-2.92c0.806,-0.807 2.114,-0.807 2.92,0l5.475,5.475Z" style="fill:#fff;"/></svg>