<?xml version="1.0" standalone="no"?><!DOCTYPE svg PUBLIC "-//W3C//DTD SVG 1.1//EN" "http://www.w3.org/Graphics/SVG/1.1/DTD/svg11.dtd"><svg width="100%" height="100%" viewBox="0 0 48 48" version="1.1" xmlns="http://www.w3.org/2000/svg" xmlns:xlink="http://www.w3.org/1999/xlink" xml:space="preserve" style="fill-rule:evenodd;clip-rule:evenodd;stroke-linejoin:round;stroke-miterlimit:1.41421;"><g id="fab-food"><path id="apple" d="M24.713,13.012c0.2,1.063 0.273,2.118 0.26,3.078c8.299,-3.785 12.856,2.501 11.902,9.641c-0.99,7.415 -6.933,12.207 -12.875,9.509c-5.942,2.698 -11.885,-2.094 -12.875,-9.509c-0.155,-1.162 -0.165,-2.301 -0.035,-3.378c0.174,0.018 0.35,0.028 0.529,0.028c2.735,0 4.952,-2.217 4.952,-4.952c0,-0.761 -0.171,-1.482 -0.478,-2.126c1.849,-0.611 4.163,-0.465 6.88,0.763c0.014,-1.117 -0.104,-2.397 -0.438,-3.606c-0.105,-0.378 -0.228,-0.734 -0.37,-1.065c-0.218,-0.508 0.017,-1.096 0.524,-1.314c0.508,-0.217 1.096,0.017 1.314,0.525c0.123,0.288 0.234,0.587 0.333,0.896c0.344,-0.473 0.832,-0.969 1.48,-1.233c1.479,-0.603 3.446,-0.003 3.446,-0.003c0,0 -0.857,2.038 -2.336,2.641c-0.756,0.308 -1.584,0.243 -2.213,0.105Z" style="fill:#fff;"/></g></svg>