<?xml version="1.0" standalone="no"?><!DOCTYPE svg PUBLIC "-//W3C//DTD SVG 1.1//EN" "http://www.w3.org/Graphics/SVG/1.1/DTD/svg11.dtd"><svg width="100%" height="100%" viewBox="0 0 48 48" version="1.1" xmlns="http://www.w3.org/2000/svg" xmlns:xlink="http://www.w3.org/1999/xlink" xml:space="preserve" style="fill-rule:evenodd;clip-rule:evenodd;stroke-linejoin:round;stroke-miterlimit:1.41421;"><g id="fab-workout"><path d="M13.878,26.868c-2.265,-0.846 -3.878,-3.029 -3.878,-5.588c0,-3.294 2.67,-5.963 5.963,-5.963c3.293,0 5.963,2.669 5.963,5.963c0,0.205 -0.01,0.408 -0.031,0.608c0.989,-0.061 2.581,0.31 3.751,1.733c1.485,1.804 1.326,2.996 1.095,3.949c0.114,-0.251 1.649,-2.472 4.405,-5.328c1.383,-1.434 4.165,-5.591 3.884,-7.513c-1.482,0.468 -2.919,-0.461 -3.043,-0.733c-0.125,-0.274 -0.148,-1.636 -0.035,-1.868c0.085,-0.175 1.507,-1.128 1.88,-1.128c0.304,0 3.059,0.988 3.613,1.894c0.555,0.906 0.555,2.53 0.555,3.46c0,4.759 -2.205,10.664 -3.971,13.813c-1.767,3.149 -4.991,5.87 -5.622,6.409c-0.418,0.291 -0.894,0.065 -1.037,0c-12.031,-3.464 -12.85,-9.468 -13.492,-9.708ZM20.071,25.298c0.724,0.197 1.392,0.612 1.921,1.255c0.695,0.844 0.981,1.514 1.013,2.125c0.029,0.551 0.499,0.975 1.051,0.946c0.551,-0.029 0.975,-0.499 0.946,-1.051c-0.055,-1.064 -0.513,-2.132 -1.465,-3.29c-0.801,-0.975 -1.829,-1.612 -2.941,-1.915c-0.533,-0.145 -1.083,0.17 -1.228,0.703c-0.145,0.533 0.17,1.082 0.703,1.227Z" style="fill:#fff;"/></g></svg>