<?xml version="1.0" standalone="no"?><!DOCTYPE svg PUBLIC "-//W3C//DTD SVG 1.1//EN" "http://www.w3.org/Graphics/SVG/1.1/DTD/svg11.dtd"><svg width="100%" height="100%" viewBox="0 0 48 48" version="1.1" xmlns="http://www.w3.org/2000/svg" xmlns:xlink="http://www.w3.org/1999/xlink" xml:space="preserve" style="fill-rule:evenodd;clip-rule:evenodd;stroke-linejoin:round;stroke-miterlimit:1.41421;"><g id="fab-water"><path d="M24,38c5.523,0 10,-4.477 10,-10c0,-5.523 -10,-18 -10,-18c0,0 -10,12.477 -10,18c0,5.523 4.477,10 10,10ZM24.78,34.959c3.238,-0.368 5.804,-2.942 6.16,-6.183c0.06,-0.549 -0.336,-1.043 -0.885,-1.103c-0.549,-0.061 -1.043,0.336 -1.103,0.884c-0.254,2.312 -2.088,4.153 -4.398,4.415c-0.549,0.062 -0.943,0.558 -0.881,1.106c0.062,0.549 0.558,0.944 1.107,0.881Z" style="fill:#fff;"/></g></svg>