<?xml version="1.0" standalone="no"?><!DOCTYPE svg PUBLIC "-//W3C//DTD SVG 1.1//EN" "http://www.w3.org/Graphics/SVG/1.1/DTD/svg11.dtd"><svg width="100%" height="100%" viewBox="0 0 42 42" version="1.1" xmlns="http://www.w3.org/2000/svg" xmlns:xlink="http://www.w3.org/1999/xlink" xml:space="preserve" style="fill-rule:evenodd;clip-rule:evenodd;stroke-linejoin:round;stroke-miterlimit:1.41421;"><g id="small-food"><path id="apple" d="M8.228,8.567c3.355,-1.109 7.66,-0.675 12.772,2.048c14.399,-7.67 22.398,2.819 20.798,14.797c-1.6,11.978 -11.199,19.718 -20.798,15.36c-9.599,4.358 -19.198,-3.382 -20.798,-15.36c-0.251,-1.877 -0.266,-3.717 -0.057,-5.457c0.281,0.03 0.566,0.045 0.855,0.045c4.418,0 8,-3.582 8,-8c0,-1.229 -0.277,-2.393 -0.772,-3.433Z" style="fill:#f34848;"/><path id="leaf" d="M22.026,4.836c1.03,0.242 2.429,0.379 3.7,-0.14c2.39,-0.974 3.774,-4.266 3.774,-4.266c0,0 -3.178,-0.97 -5.567,0.004c-1.092,0.445 -1.903,1.297 -2.461,2.091c-0.174,-0.566 -0.372,-1.108 -0.597,-1.623c-0.33,-0.76 -1.214,-1.108 -1.973,-0.777c-0.76,0.331 -1.108,1.214 -0.777,1.974c0.342,0.785 0.616,1.672 0.825,2.641c0.313,1.453 0.466,3.01 0.495,4.56c0.011,0.544 0.005,1.047 -0.013,1.495c-0.01,0.263 -0.021,0.445 -0.028,0.533c-0.068,0.825 2.921,1.07 2.989,0.245c0.04,-0.481 0.071,-1.291 0.051,-2.33c-0.028,-1.478 -0.157,-2.967 -0.418,-4.407Z" style="fill:#b33535;"/></g></svg>