<?xml version="1.0" standalone="no"?><!DOCTYPE svg PUBLIC "-//W3C//DTD SVG 1.1//EN" "http://www.w3.org/Graphics/SVG/1.1/DTD/svg11.dtd"><svg width="100%" height="100%" viewBox="0 0 42 42" version="1.1" xmlns="http://www.w3.org/2000/svg" xmlns:xlink="http://www.w3.org/1999/xlink" xml:space="preserve" style="fill-rule:evenodd;clip-rule:evenodd;stroke-linejoin:round;stroke-miterlimit:1.41421;"><g id="small-drink"><path id="Oval-9" d="M21,42c8.284,0 15,-6.716 15,-15c0,-8.284 -15,-27 -15,-27c0,0 -15,18.716 -15,27c0,8.284 6.716,15 15,15Z" style="fill:#3fc9ff;"/><path id="Shape" d="M22.14,36.936c4.626,-0.526 8.291,-4.204 8.8,-8.833c0.06,-0.549 -0.336,-1.043 -0.885,-1.103c-0.549,-0.061 -1.043,0.336 -1.103,0.884c-0.407,3.701 -3.34,6.644 -7.038,7.064c-0.549,0.063 -0.943,0.558 -0.881,1.107c0.063,0.549 0.558,0.943 1.107,0.881Z" style="fill:#33a1cc;"/></g></svg>