<?xml version="1.0" standalone="no"?><!DOCTYPE svg PUBLIC "-//W3C//DTD SVG 1.1//EN" "http://www.w3.org/Graphics/SVG/1.1/DTD/svg11.dtd"><svg width="100%" height="100%" viewBox="0 0 42 42" version="1.1" xmlns="http://www.w3.org/2000/svg" xmlns:xlink="http://www.w3.org/1999/xlink" xml:space="preserve" style="fill-rule:evenodd;clip-rule:evenodd;stroke-linejoin:round;stroke-miterlimit:1.41421;"><g id="small-shopping"><path id="sheet" d="M38,2c0,-1.104 -0.896,-2 -2,-2l-30,0c-1.104,0 -2,0.896 -2,2l0,38c0,1.104 0.896,2 2,2l30,0c1.104,0 2,-0.896 2,-2l0,-38Z" style="fill:#b467eb;"/><path id="list" d="M10,9c0,-0.552 0.439,-1 1.002,-1l19.996,0c0.553,0 1.002,0.444 1.002,1c0,0.552 -0.439,1 -1.002,1l-19.996,0c-0.553,0 -1.002,-0.444 -1.002,-1ZM10,15c0,-0.552 0.439,-1 1.002,-1l19.996,0c0.553,0 1.002,0.444 1.002,1c0,0.552 -0.439,1 -1.002,1l-19.996,0c-0.553,0 -1.002,-0.444 -1.002,-1ZM10,21c0,-0.552 0.439,-1 1.002,-1l19.996,0c0.553,0 1.002,0.444 1.002,1c0,0.552 -0.439,1 -1.002,1l-19.996,0c-0.553,0 -1.002,-0.444 -1.002,-1ZM10,27c0,-0.552 0.439,-1 1.002,-1l19.996,0c0.553,0 1.002,0.444 1.002,1c0,0.552 -0.439,1 -1.002,1l-19.996,0c-0.553,0 -1.002,-0.444 -1.002,-1Z" style="fill:#8d51b8;"/></g></svg>