<?xml version="1.0" standalone="no"?><!DOCTYPE svg PUBLIC "-//W3C//DTD SVG 1.1//EN" "http://www.w3.org/Graphics/SVG/1.1/DTD/svg11.dtd"><svg width="100%" height="100%" viewBox="0 0 48 54" version="1.1" xmlns="http://www.w3.org/2000/svg" xmlns:xlink="http://www.w3.org/1999/xlink" xml:space="preserve" style="fill-rule:evenodd;clip-rule:evenodd;stroke-linejoin:round;stroke-miterlimit:1.41421;"><g id="big-measurements"><g><path id="scale" d="M24,0c-6.702,0 -12.304,4.71 -13.678,11l-6.361,0.924c-2.187,0.318 -3.832,2.359 -3.672,4.574l2.422,33.504c0.16,2.208 2.08,3.998 4.297,3.998l33.984,0c2.214,0 4.137,-1.783 4.297,-3.998l2.422,-33.504c0.16,-2.208 -1.485,-4.256 -3.672,-4.574l-6.361,-0.924c-1.374,-6.29 -6.976,-11 -13.678,-11Z" style="fill:#ffaf3f;"/><path d="M30.033,43.738c0.029,-0.551 0.507,-0.974 1.046,-0.946l7.999,0.42c0.549,0.028 0.97,0.494 0.941,1.049l-0.052,1.001c-0.029,0.551 -0.507,0.974 -1.046,0.946l-7.999,-0.42c-0.549,-0.028 -0.97,-0.494 -0.941,-1.049l0.052,-1.001ZM17.967,43.738c-0.029,-0.551 -0.507,-0.974 -1.046,-0.946l-7.999,0.42c-0.549,0.028 -0.97,0.494 -0.941,1.049l0.052,1.001c0.029,0.551 0.507,0.974 1.046,0.946l7.999,-0.42c0.549,-0.028 0.97,-0.494 0.941,-1.049l-0.052,-1.001ZM30.034,36.712c0.029,-0.551 0.496,-0.975 1.046,-0.946l8.997,0.472c0.549,0.029 0.971,0.494 0.942,1.049l-0.053,1.001c-0.029,0.551 -0.496,0.975 -1.046,0.946l-8.997,-0.472c-0.549,-0.029 -0.971,-0.494 -0.942,-1.049l0.053,-1.001ZM17.966,36.712c-0.029,-0.551 -0.496,-0.975 -1.046,-0.946l-8.997,0.472c-0.549,0.029 -0.971,0.494 -0.942,1.049l0.053,1.001c0.029,0.551 0.496,0.975 1.046,0.946l8.997,-0.472c0.549,-0.029 0.971,-0.494 0.942,-1.049l-0.053,-1.001ZM30.034,29.686c0.029,-0.551 0.508,-0.974 1.054,-0.945l9.981,0.523c0.553,0.029 0.978,0.494 0.949,1.05l-0.052,1c-0.029,0.551 -0.508,0.974 -1.054,0.945l-9.981,-0.523c-0.553,-0.029 -0.978,-0.494 -0.949,-1.05l0.052,-1ZM17.966,29.686c-0.029,-0.551 -0.508,-0.974 -1.054,-0.945l-9.981,0.523c-0.553,0.029 -0.978,0.494 -0.949,1.05l0.052,1c0.029,0.551 0.508,0.974 1.054,0.945l9.981,-0.523c0.553,-0.029 0.978,-0.494 0.949,-1.05l-0.052,-1ZM24,4c5.519,0 10,4.481 10,10c0,5.519 -4.481,10 -10,10c-5.519,0 -10,-4.481 -10,-10c0,-5.519 4.481,-10 10,-10ZM19.258,11.789c-0.113,-0.251 -0.004,-0.57 0.228,-0.704c0.24,-0.138 0.567,-0.064 0.724,0.155l4.772,6.638c0.444,0.617 0.278,1.421 -0.389,1.806l-0.213,0.123c-0.659,0.38 -1.445,0.129 -1.759,-0.566l-3.363,-7.452Z" style="fill:#f3920c;"/></g></g></svg>