<?xml version="1.0" standalone="no"?><!DOCTYPE svg PUBLIC "-//W3C//DTD SVG 1.1//EN" "http://www.w3.org/Graphics/SVG/1.1/DTD/svg11.dtd"><svg width="100%" height="100%" viewBox="0 0 42 42" version="1.1" xmlns="http://www.w3.org/2000/svg" xmlns:xlink="http://www.w3.org/1999/xlink" xml:space="preserve" style="fill-rule:evenodd;clip-rule:evenodd;stroke-linejoin:round;stroke-miterlimit:1.41421;"><g id="small-reading"><path id="front-cover" d="M35,2c0,-1.104 -0.896,-2 -2,-2l-27,0c-1.104,0 -2,0.896 -2,2l0,35c0,1.104 0.896,2 2,2l27,0c1.104,0 2,-0.896 2,-2l0,-35Z" style="fill:#bf8a4c;"/><path d="M33.002,39c1.104,0 1.998,-0.896 1.998,-2.001l0,-34.998c0,-0.522 -0.197,-0.994 -0.519,-1.349l2.937,2.938c0.36,0.362 0.582,0.86 0.582,1.41l0,35c0,1.105 -0.895,2 -2,2l-26,0c-0.555,0 -1.057,-0.226 -1.42,-0.591l-3.7,-2.749c0.319,0.215 0.704,0.34 1.118,0.34l27.004,0ZM9,0l4,0l0,12l-2,-2l-2,2l0,-12Z" style="fill:#8c6538;"/></g></svg>