<?xml version="1.0" standalone="no"?><!DOCTYPE svg PUBLIC "-//W3C//DTD SVG 1.1//EN" "http://www.w3.org/Graphics/SVG/1.1/DTD/svg11.dtd"><svg width="100%" height="100%" viewBox="0 0 42 42" version="1.1" xmlns="http://www.w3.org/2000/svg" xmlns:xlink="http://www.w3.org/1999/xlink" xml:space="preserve" style="fill-rule:evenodd;clip-rule:evenodd;stroke-linejoin:round;stroke-miterlimit:1.41421;"><g id="small-workout"><path id="bicep" d="M5.817,25.327c-3.398,-1.269 -5.817,-4.543 -5.817,-8.383c0,-4.939 4.005,-8.944 8.944,-8.944c4.94,0 8.945,4.005 8.945,8.944c0,0.308 -0.016,0.613 -0.046,0.912c1.483,-0.091 3.871,0.467 5.626,2.6c2.227,2.707 1.989,4.494 1.642,5.924c0.171,-0.377 2.474,-3.708 6.607,-7.991c2.076,-2.151 6.248,-8.388 5.827,-11.271c-2.223,0.702 -4.378,-0.69 -4.564,-1.099c-0.188,-0.411 -0.222,-2.453 -0.053,-2.802c0.128,-0.262 2.26,-1.692 2.82,-1.692c0.456,0.001 4.588,1.482 5.42,2.842c0.832,1.359 0.832,3.795 0.832,5.189c0,7.138 -3.307,15.997 -5.957,20.72c-2.65,4.723 -7.486,8.805 -8.432,9.613c-0.628,0.436 -1.342,0.097 -1.555,0c-18.048,-5.196 -19.275,-14.202 -20.239,-14.562Z" style="fill:#8bc541;"/><path id="Shape" d="M16.56,22.044c1.183,0.322 2.275,1 3.137,2.048c1.106,1.344 1.578,2.448 1.632,3.478c0.029,0.552 0.5,0.975 1.051,0.946c0.552,-0.028 0.976,-0.499 0.947,-1.051c-0.078,-1.482 -0.721,-2.985 -2.085,-4.644c-1.134,-1.379 -2.586,-2.28 -4.157,-2.707c-0.533,-0.145 -1.083,0.17 -1.227,0.703c-0.145,0.533 0.169,1.082 0.702,1.227Z" style="fill:#679130;"/></g></svg>