<?xml version="1.0" standalone="no"?><!DOCTYPE svg PUBLIC "-//W3C//DTD SVG 1.1//EN" "http://www.w3.org/Graphics/SVG/1.1/DTD/svg11.dtd"><svg width="100%" height="100%" viewBox="0 0 54 54" version="1.1" xmlns="http://www.w3.org/2000/svg" xmlns:xlink="http://www.w3.org/1999/xlink" xml:space="preserve" style="fill-rule:evenodd;clip-rule:evenodd;stroke-linejoin:round;stroke-miterlimit:1.41421;"><g id="big-fridge"><path d="M45,23l0,28c0,1.656 -1.344,3 -3,3l-30,0c-1.656,0 -3,-1.344 -3,-3l0,-28l36,0ZM42,0c1.656,0 3,1.344 3,3l0,17l-36,0l0,-17c0,-1.656 1.344,-3 3,-3l30,0Z" style="fill:#68eee9;"/><path d="M14,26c0.552,0 1,0.448 1,1l0,12c0,0.552 -0.448,1 -1,1l-1,0c-0.552,0 -1,-0.448 -1,-1l0,-12c0,-0.552 0.448,-1 1,-1l1,0ZM9,20l36,0l0,3l-36,0l0,-3ZM14,3c0.552,0 1,0.448 1,1l0,12c0,0.552 -0.448,1 -1,1l-1,0c-0.552,0 -1,-0.448 -1,-1l0,-12c0,-0.552 0.448,-1 1,-1l1,0Z" style="fill:#57c7c3;"/></g></svg>