<?xml version="1.0" standalone="no"?><!DOCTYPE svg PUBLIC "-//W3C//DTD SVG 1.1//EN" "http://www.w3.org/Graphics/SVG/1.1/DTD/svg11.dtd"><svg width="100%" height="100%" viewBox="0 0 54 54" version="1.1" xmlns="http://www.w3.org/2000/svg" xmlns:xlink="http://www.w3.org/1999/xlink" xml:space="preserve" style="fill-rule:evenodd;clip-rule:evenodd;stroke-linejoin:round;stroke-miterlimit:1.41421;"><g id="big-workout"><path id="bicep" d="M7.478,32.602c-4.368,-1.631 -7.478,-5.841 -7.478,-10.777c0,-6.352 5.149,-11.5 11.5,-11.5c6.351,0 11.5,5.148 11.5,11.5c0,0.396 -0.02,0.787 -0.059,1.172c1.907,-0.117 5.1,0.998 7.23,3.825c1.72,2.281 2.561,5.296 2.115,7.134c0.219,-0.484 2.18,-5.153 7.494,-10.661c2.669,-2.765 8.771,-9.564 8.23,-13.27c-2.836,0.046 -5.367,-1.722 -5.606,-2.247c-0.242,-0.529 -0.285,-3.154 -0.067,-3.603c0.163,-0.337 2.904,-2.176 3.625,-2.175c0.587,0 5.898,1.906 6.968,3.653c1.07,1.748 1.07,4.88 1.07,6.672c0,9.178 -3.894,20.654 -7.302,26.726c-3.407,6.073 -9.982,11.236 -11.198,12.274c-0.807,0.561 -1.725,0.125 -2,0c-23.204,-6.681 -24.782,-18.26 -26.022,-18.723Z" style="fill:#8bc541;"/><path id="Shape" d="M20.645,28.712c1.611,0.459 3.195,1.508 4.328,3.012c0.94,1.247 1.614,2.806 1.846,4.198c0.136,0.817 0.909,1.369 1.727,1.233c0.817,-0.136 1.369,-0.909 1.232,-1.726c-0.312,-1.872 -1.18,-3.88 -2.409,-5.51c-1.537,-2.04 -3.679,-3.459 -5.902,-4.092c-0.797,-0.227 -1.627,0.235 -1.854,1.031c-0.227,0.797 0.235,1.627 1.032,1.854Z" style="fill:#679130;"/></g></svg>