<?xml version="1.0" standalone="no"?><!DOCTYPE svg PUBLIC "-//W3C//DTD SVG 1.1//EN" "http://www.w3.org/Graphics/SVG/1.1/DTD/svg11.dtd"><svg width="100%" height="100%" viewBox="0 0 54 54" version="1.1" xmlns="http://www.w3.org/2000/svg" xmlns:xlink="http://www.w3.org/1999/xlink" xml:space="preserve" style="fill-rule:evenodd;clip-rule:evenodd;stroke-linejoin:round;stroke-miterlimit:1.41421;"><g id="big-food"><path id="apple" d="M0.004,28.972c0.019,1.109 0.103,2.236 0.256,3.374c2.057,15.372 14.398,25.306 26.74,20.385c12.342,4.921 24.683,-5.013 26.74,-20.385c2.057,-15.372 -8.227,-28.833 -26.74,-18.99c-7.829,-4.162 -14.186,-4.157 -18.761,-1.602c1.088,1.086 1.761,2.587 1.761,4.246c0,3.314 -2.686,6 -6,6c-0.269,0 -0.534,-0.018 -0.793,-0.052c0.5,0.725 0.793,1.604 0.793,2.552c0,2.315 -1.748,4.222 -3.996,4.472Z" style="fill:#f34848;"/><path id="leaf" d="M28.586,7.572c1.579,0.344 3.652,0.505 5.544,-0.266c3.718,-1.516 5.87,-6.637 5.87,-6.637c0,0 -4.943,-1.509 -8.659,0.006c-1.612,0.658 -2.831,1.884 -3.693,3.063c-0.375,-1.192 -0.741,-2.094 -1.012,-2.649c-0.474,-0.973 -1.627,-1.367 -2.575,-0.881c-0.948,0.487 -1.332,1.669 -0.858,2.642c0.046,0.093 0.142,0.311 0.273,0.639c0.228,0.57 0.457,1.228 0.672,1.963c0.89,3.043 1.241,6.199 0.845,9.315c0.004,0.543 0.871,0.984 1.94,0.984c1.069,0 1.935,-0.441 1.935,-0.984c0.252,-2.417 0.135,-4.829 -0.282,-7.195Z" style="fill:#b33535;"/></g></svg>