<?xml version="1.0" standalone="no"?><!DOCTYPE svg PUBLIC "-//W3C//DTD SVG 1.1//EN" "http://www.w3.org/Graphics/SVG/1.1/DTD/svg11.dtd"><svg width="100%" height="100%" viewBox="0 0 42 84" version="1.1" xmlns="http://www.w3.org/2000/svg" xmlns:xlink="http://www.w3.org/1999/xlink" xml:space="preserve" style="cursor: pointer;fill-rule:evenodd;clip-rule:evenodd;stroke-linejoin:round;stroke-miterlimit:1.41421;"><g id="Bottle-Copy"><path id="bottle" d="M6,40c0,-3 2,-5.5 2,-8c0.014,-2.5 -2,-4.978 -2,-8l0,-9.002c0,-1.656 1.347,-2.998 3,-2.998l24,0c1.657,0 3,1.337 3,3.002l0,8.998c0,3 -2,5.5 -2,8c0,2.5 2,5 2,8l0,41.006c0,1.654 -1.347,2.994 -3,2.994l-24,0c-1.657,0 -3,-1.335 -3,-2.994l0,-41.006Z" style="fill:#3fc9ff;"/><path d="M33,43l0,36.5c0,0.828 -0.672,1.5 -1.5,1.5l-21,0c-0.828,0 -1.5,-0.672 -1.5,-1.5l0,-36.5l24,0ZM23.102,0c0.496,0 0.898,0.405 0.898,0.9l0,1.2c0,0.497 -0.394,0.9 -0.898,0.9l-0.102,0l0,1l7.047,1.392c1.079,0.213 1.953,1.277 1.953,2.389l0,2.617c0,0.885 -0.707,1.602 -1.6,1.602l-18.8,0c-0.884,0 -1.6,-0.714 -1.6,-1.602l0,-2.617c0,-1.106 0.879,-2.177 1.953,-2.389l7.047,-1.392l0,-1l-0.102,0c-0.496,0 -0.898,-0.405 -0.898,-0.9l0,-1.2c0,-0.497 0.394,-0.9 0.898,-0.9l4.204,0Z" style="fill:#36abd9;"/></g></svg>