<?xml version="1.0" standalone="no"?><!DOCTYPE svg PUBLIC "-//W3C//DTD SVG 1.1//EN" "http://www.w3.org/Graphics/SVG/1.1/DTD/svg11.dtd"><svg width="100%" height="100%" viewBox="0 0 48 48" version="1.1" xmlns="http://www.w3.org/2000/svg" xmlns:xlink="http://www.w3.org/1999/xlink" xml:space="preserve" style="fill-rule:evenodd;clip-rule:evenodd;stroke-linejoin:round;stroke-miterlimit:1.41421;"><g id="fab-shopping"><path d="M33,11c1.104,0 2,0.896 2,2l0,22c0,1.104 -0.896,2 -2,2l-18,0c-1.104,0 -2,-0.896 -2,-2l0,-22c0,-1.104 0.896,-2 2,-2l18,0ZM30,26l-12,0c-0.552,0 -1,0.448 -1,1c0,0.552 0.448,1 1,1l12,0c0.552,0 1,-0.448 1,-1c0,-0.552 -0.448,-1 -1,-1ZM31,22c0,-0.552 -0.448,-1 -1,-1l-12,0c-0.552,0 -1,0.448 -1,1c0,0.552 0.448,1 1,1l12,0c0.552,0 1,-0.448 1,-1ZM30,16l-12,0c-0.552,0 -1,0.448 -1,1c0,0.552 0.448,1 1,1l12,0c0.552,0 1,-0.448 1,-1c0,-0.552 -0.448,-1 -1,-1Z" style="fill:#fff;"/></g></svg>