<?xml version="1.0" standalone="no"?><!DOCTYPE svg PUBLIC "-//W3C//DTD SVG 1.1//EN" "http://www.w3.org/Graphics/SVG/1.1/DTD/svg11.dtd"><svg width="100%" height="100%" viewBox="0 0 42 84" version="1.1" xmlns="http://www.w3.org/2000/svg" xmlns:xlink="http://www.w3.org/1999/xlink" xml:space="preserve" style="cursor:pointer;fill-rule:evenodd;clip-rule:evenodd;stroke-linejoin:round;stroke-miterlimit:1.41421;"><g id="Glass"><path id="glass" d="M0.239,35.991c-0.132,-1.1 0.658,-1.991 1.758,-1.991l38.006,0c1.103,0 1.89,0.889 1.758,1.991l-5.522,46.018c-0.132,1.1 -1.137,1.991 -2.231,1.991l-26.016,0c-1.1,0 -2.099,-0.889 -2.231,-1.991l-5.522,-46.018Z" style="fill:#3fc9ff;"/><path id="Shape" d="M36.406,55.439l0.933,-7.76l0.202,-1.679l-1.691,0l-29.7,0l-1.691,0l4.052,33.679c0.09,0.754 0.73,1.321 1.489,1.321l22,0c0.759,0 1.399,-0.567 1.489,-1.321l1.983,-16.48l0.934,-7.76Z" style="fill:#36abd9;"/></g></svg>