<?xml version="1.0" encoding="UTF-8" standalone="no"?>
<svg width="26px" height="26px" viewBox="0 0 26 26" version="1.1" xmlns="http://www.w3.org/2000/svg" xmlns:xlink="http://www.w3.org/1999/xlink" xmlns:sketch="http://www.bohemiancoding.com/sketch/ns">
    <!-- Generator: Sketch 3.4.3 (16044) - http://www.bohemiancoding.com/sketch -->
    <title>Shape</title>
    <desc>Created with Sketch.</desc>
    <defs></defs>
    <g id="Page-1" stroke="none" stroke-width="1" fill="none" fill-rule="evenodd" sketch:type="MSPage">
        <path d="M11,11 L11,2 C11,0.8954305 11.8954305,0 13,0 C14.1045695,0 15,0.8954305 15,2 L15,11 L24,11 C25.1045695,11 26,11.8954305 26,13 C26,14.1045695 25.1045695,15 24,15 L15,15 L15,24 C15,25.1045695 14.1045695,26 13,26 C11.8954305,26 11,25.1045695 11,24 L11,15 L2,15 C0.8954305,15 0,14.1045695 0,13 C0,11.8954305 0.8954305,11 2,11 L11,11 L11,11 L11,11 Z" id="Shape" fill="#FFFFFF" sketch:type="MSShapeGroup"></path>
    </g>
</svg>