<?xml version="1.0" standalone="no"?><!DOCTYPE svg PUBLIC "-//W3C//DTD SVG 1.1//EN" "http://www.w3.org/Graphics/SVG/1.1/DTD/svg11.dtd"><svg width="100%" height="100%" viewBox="0 0 8 16" version="1.1" xmlns="http://www.w3.org/2000/svg" xmlns:xlink="http://www.w3.org/1999/xlink" xml:space="preserve" style="fill-rule:evenodd;clip-rule:evenodd;stroke-linejoin:round;stroke-miterlimit:1.41421;fill:rgba(84, 84, 89, 1);"><path d="M1.039,0.001c0.076,0.006 0.148,0.014 0.222,0.034c0.144,0.039 0.279,0.11 0.393,0.208c0.05,0.044 0.06,0.057 0.105,0.106l6,7c0.063,0.079 0.118,0.159 0.158,0.252c0.11,0.253 0.11,0.545 0,0.798c-0.04,0.093 -0.095,0.173 -0.158,0.252l-6,7c-0.051,0.055 -0.103,0.107 -0.164,0.152c-0.14,0.105 -0.307,0.171 -0.481,0.19c-0.124,0.015 -0.25,0.005 -0.371,-0.027c-0.317,-0.084 -0.577,-0.325 -0.686,-0.634c-0.033,-0.094 -0.052,-0.193 -0.056,-0.293c-0.004,-0.099 0.007,-0.2 0.033,-0.296c0.039,-0.148 0.112,-0.275 0.207,-0.394l5.442,-6.349l-5.442,-6.349l-0.047,-0.059c-0.085,-0.125 -0.149,-0.258 -0.177,-0.408c-0.075,-0.4 0.108,-0.816 0.453,-1.032c0.129,-0.081 0.27,-0.124 0.42,-0.146c0.075,-0.005 0.075,-0.005 0.149,-0.005Z"/></svg>