<?xml version="1.0" standalone="no"?><!DOCTYPE svg PUBLIC "-//W3C//DTD SVG 1.1//EN" "http://www.w3.org/Graphics/SVG/1.1/DTD/svg11.dtd"><svg width="100%" height="100%" viewBox="0 0 38 42" version="1.1" xmlns="http://www.w3.org/2000/svg" xmlns:xlink="http://www.w3.org/1999/xlink" xml:space="preserve" style="fill-rule:evenodd;clip-rule:evenodd;stroke-linejoin:round;stroke-miterlimit:1.41421;"><g id="small-measurements"><path id="scale" d="M19,0c-5.392,0 -9.878,3.88 -10.819,9l-4.21,0.515c-2.193,0.268 -3.803,2.274 -3.597,4.473l2.252,24.024c0.207,2.202 2.163,3.988 4.378,3.988l23.992,0c2.211,0 4.172,-1.789 4.378,-3.988l2.252,-24.024c0.207,-2.202 -1.401,-4.205 -3.597,-4.473l-4.21,-0.515c-0.941,-5.12 -5.427,-9 -10.819,-9Z" style="fill:#ffaf3f;"/><path d="M30.995,35.183c0.029,-0.551 -0.395,-1.022 -0.946,-1.051l-4.993,-0.261c-0.551,-0.029 -1.022,0.395 -1.051,0.946c-0.029,0.551 0.395,1.022 0.946,1.051l4.993,0.261c0.551,0.029 1.022,-0.395 1.051,-0.946ZM7.005,35.183c-0.029,-0.551 0.395,-1.022 0.946,-1.051l4.993,-0.261c0.551,-0.029 1.022,0.395 1.051,0.946c0.029,0.551 -0.395,1.022 -0.946,1.051l-4.993,0.261c-0.551,0.029 -1.022,-0.395 -1.051,-0.946ZM31.995,30.209c0.028,-0.551 -0.396,-1.022 -0.947,-1.051l-5.992,-0.314c-0.551,-0.029 -1.022,0.395 -1.051,0.947c-0.028,0.551 0.396,1.022 0.947,1.051l5.992,0.314c0.551,0.029 1.022,-0.395 1.051,-0.947ZM6.005,30.209c-0.028,-0.551 0.396,-1.022 0.947,-1.051l5.992,-0.314c0.551,-0.029 1.022,0.395 1.051,0.947c0.028,0.551 -0.396,1.022 -0.947,1.051l-5.992,0.314c-0.551,0.029 -1.022,-0.395 -1.051,-0.947ZM32.994,25.236c0.029,-0.552 -0.395,-1.023 -0.946,-1.051l-6.991,-0.367c-0.551,-0.029 -1.022,0.395 -1.051,0.946c-0.029,0.552 0.395,1.023 0.946,1.051l6.991,0.367c0.551,0.029 1.022,-0.395 1.051,-0.946ZM5.006,25.236c-0.029,-0.552 0.395,-1.023 0.946,-1.051l6.991,-0.367c0.551,-0.029 1.022,0.395 1.051,0.946c0.029,0.552 -0.395,1.023 -0.946,1.051l-6.991,0.367c-0.551,0.029 -1.022,-0.395 -1.051,-0.946ZM19,3c4.415,0 8,3.585 8,8c0,4.415 -3.585,8 -8,8c-4.415,0 -8,-3.585 -8,-8c0,-4.415 3.585,-8 8,-8ZM15.391,9.554c-0.108,-0.256 0.005,-0.58 0.237,-0.714c0.239,-0.138 0.574,-0.064 0.738,0.152l3.725,4.918c0.462,0.61 0.298,1.415 -0.356,1.793l-0.213,0.123c-0.659,0.38 -1.433,0.118 -1.731,-0.588l-2.4,-5.684Z" style="fill:#f3920c;"/></g></svg>