<?xml version="1.0" standalone="no"?><!DOCTYPE svg PUBLIC "-//W3C//DTD SVG 1.1//EN" "http://www.w3.org/Graphics/SVG/1.1/DTD/svg11.dtd"><svg width="100%" height="100%" viewBox="0 0 42 42" version="1.1" xmlns="http://www.w3.org/2000/svg" xmlns:xlink="http://www.w3.org/1999/xlink" xml:space="preserve" style="fill-rule:evenodd;clip-rule:evenodd;stroke-linejoin:round;stroke-miterlimit:1.41421;"><g id="small-fridge"><path d="M35,18l0,22c0,1.104 -0.896,2 -2,2l-24,0c-1.104,0 -2,-0.896 -2,-2l0,-22l28,0ZM33,0c1.104,0 2,0.896 2,2l0,14l-28,0l0,-14c0,-1.104 0.896,-2 2,-2l24,0Z" style="fill:#68eee9;"/><path d="M11,22c0,-0.552 -0.448,-1 -1,-1c-0.552,0 -1,0.448 -1,1l0,8c0,0.552 0.448,1 1,1c0.552,0 1,-0.448 1,-1l0,-8ZM7,16l28,0l0,2l-28,0l0,-2ZM11,4c0,-0.552 -0.448,-1 -1,-1c-0.552,0 -1,0.448 -1,1l0,8c0,0.552 0.448,1 1,1c0.552,0 1,-0.448 1,-1l0,-8Z" style="fill:#57c7c3;"/></g></svg>