<?xml version="1.0" standalone="no"?><!DOCTYPE svg PUBLIC "-//W3C//DTD SVG 1.1//EN" "http://www.w3.org/Graphics/SVG/1.1/DTD/svg11.dtd"><svg width="100%" height="100%" viewBox="0 0 36 36" version="1.1" xmlns="http://www.w3.org/2000/svg" xmlns:xlink="http://www.w3.org/1999/xlink" xml:space="preserve" style="fill:rgba(156, 157, 166, 1);fill-rule:evenodd;clip-rule:evenodd;stroke-linejoin:round;stroke-miterlimit:1.41421;"><path id="camera" d="M0,10.005c0,-1.107 0.887,-2.005 2,-2.005l8,0l2.577,-3.219c0.345,-0.431 1.077,-0.781 1.631,-0.781l7.913,0c0.556,0 1.272,0.369 1.588,0.809l2.291,3.191l8,0c1.105,0 2,0.897 2,2.005l0,19.99c0,1.107 -0.89,2.005 -2,2.005l-32,0c-1.105,0 -2,-0.897 -2,-2.005l0,-19.99ZM28,11c0,-0.552 0.444,-1 1,-1l3,0c0.552,0 1,0.444 1,1c0,0.552 -0.444,1 -1,1l-3,0c-0.552,0 -1,-0.444 -1,-1ZM18,26c3.314,0 6,-2.686 6,-6c0,-3.314 -2.686,-6 -6,-6c-3.314,0 -6,2.686 -6,6c0,3.314 2.686,6 6,6ZM18,28c4.418,0 8,-3.582 8,-8c0,-4.418 -3.582,-8 -8,-8c-4.418,0 -8,3.582 -8,8c0,4.418 3.582,8 8,8Z"/></svg>