<?xml version="1.0" standalone="no"?><!DOCTYPE svg PUBLIC "-//W3C//DTD SVG 1.1//EN" "http://www.w3.org/Graphics/SVG/1.1/DTD/svg11.dtd"><svg width="100%" height="100%" viewBox="0 0 54 54" version="1.1" xmlns="http://www.w3.org/2000/svg" xmlns:xlink="http://www.w3.org/1999/xlink" xml:space="preserve" style="fill-rule:evenodd;clip-rule:evenodd;stroke-linejoin:round;stroke-miterlimit:1.41421;"><g id="big-drink"><path id="drop" d="M27,54c11.046,0 20,-8.954 20,-20c0,-11.046 -16,-20 -18,-34c-13,10 -22,22.954 -22,34c0,11.046 8.954,20 20,20Z" style="fill:#3fc9ff;"/><path id="Shape" d="M30.216,48.142c5.434,-1.231 9.706,-5.509 10.93,-10.945c0.182,-0.809 -0.326,-1.611 -1.134,-1.793c-0.808,-0.182 -1.611,0.326 -1.793,1.134c-0.969,4.307 -4.36,7.703 -8.666,8.678c-0.808,0.183 -1.315,0.986 -1.132,1.794c0.183,0.808 0.987,1.315 1.795,1.132Z" style="fill:#33a1cc;"/></g></svg>