<?xml version="1.0" standalone="no"?><!DOCTYPE svg PUBLIC "-//W3C//DTD SVG 1.1//EN" "http://www.w3.org/Graphics/SVG/1.1/DTD/svg11.dtd"><svg width="100%" height="100%" viewBox="0 0 110 24" version="1.1" xmlns="http://www.w3.org/2000/svg" xmlns:xlink="http://www.w3.org/1999/xlink" xml:space="preserve" style="fill-rule:evenodd;clip-rule:evenodd;stroke-linejoin:round;stroke-miterlimit:1.41421;"><g id="logo"><path id="bb" d="M27.241,18.264c0.049,0.005 0.098,0.009 0.148,0.009c1.341,0 2.429,-1.995 2.429,-4.454c0,-2.46 -1.088,-4.454 -2.429,-4.454c-0.05,0 -0.099,0.004 -0.148,0.009c1.273,0.139 2.282,2.076 2.282,4.445c0,2.369 -1.009,4.305 -2.282,4.445M8.505,18.264c0.049,0.005 0.099,0.009 0.148,0.009c1.341,0 2.429,-1.995 2.429,-4.454c0,-2.46 -1.088,-4.454 -2.429,-4.454c-0.049,0 -0.099,0.004 -0.148,0.009c1.273,0.139 2.282,2.076 2.282,4.445c0,2.369 -1.009,4.305 -2.282,4.445M33.398,6.305c-1.851,-1.609 -3.737,-1.744 -4.68,-1.744c-2.12,0 -3.365,0.705 -4.073,1.241c-0.369,0.268 -0.404,0.303 -0.942,0.873l0,-6.675l-5.05,0l0,13.162l5.016,0c0.188,-2.673 1.504,-4.743 3.101,-4.743l1.171,0c1.725,0 3.125,2.418 3.125,5.4c0,2.983 -1.4,5.4 -3.125,5.4l-1.171,0c-1.575,0 -2.877,-2.014 -3.093,-4.633l2.993,0c0.158,0 0.286,-0.235 0.286,-0.526c0,-0.066 -0.008,-0.128 -0.02,-0.186c-0.041,0.197 -0.144,0.336 -0.266,0.336l0,0.001l-14.367,0l0,0.375c-0.215,2.619 -1.518,4.633 -3.092,4.633l-1.172,0c-1.725,0 -3.123,-2.417 -3.123,-5.4c0,-2.982 1.398,-5.4 3.123,-5.4l1.172,0c1.596,0 2.913,2.07 3.1,4.743l5.224,0c-0.073,-3.809 -1.447,-5.714 -2.79,-6.857c-1.851,-1.609 -3.737,-1.744 -4.68,-1.744c-2.12,0 -3.366,0.705 -4.073,1.241c-0.369,0.268 -0.404,0.303 -0.942,0.873l0,-6.675l-5.05,0l0,22.573l4.814,0l-0.034,-1.845c0.303,0.37 0.607,0.705 1.01,1.007c1.583,1.241 3.401,1.308 4.108,1.308c4.039,0 5.958,-2.885 6.564,-4.126c0.402,-0.801 0.901,-2.288 1.039,-4.331l1.152,0l0,7.987l4.814,0l-0.034,-1.845c0.303,0.37 0.607,0.705 1.01,1.007c1.583,1.241 3.401,1.308 4.108,1.308c4.039,0 5.958,-2.885 6.564,-4.126c0.471,-0.939 1.077,-2.817 1.077,-5.434c0,-4.025 -1.413,-6.004 -2.794,-7.178" style="fill:#059346;"/><path id="team" d="M44.512,0l0,5.501l3.434,0l0,3.153l-3.434,0l0,8.354c0,0.704 -0.034,1.107 0.134,1.409c0.303,0.57 1.111,0.57 1.212,0.57c0.124,0 0.248,-0.002 0.372,-0.004c0.829,-0.021 1.439,-0.126 2.2,-0.475c0.85,2.016 1.915,3.023 2.306,3.413c-1.528,0.866 -3.455,1.262 -5.552,1.289c-0.079,0.002 -0.157,0.003 -0.235,0.003c-0.37,0 -0.74,0 -1.078,-0.033c-0.471,-0.034 -2.019,0 -3.198,-1.073c-1.346,-1.174 -1.279,-2.952 -1.279,-4.563l0,-8.89l-2.72,0l0,-3.153l2.72,0l0,-5.501l5.118,0ZM58.261,19.253c-2.087,0 -3.535,-1.275 -3.939,-3.321c-0.101,-0.47 -0.067,-0.872 -0.067,-1.04c0.002,-0.516 1.848,-1.083 4.127,-1.083c2.273,0 4.116,0.568 4.125,1.083l4.304,0c-0.034,-0.839 0.035,-4.461 -1.952,-7.178c-2.188,-3.052 -5.689,-3.186 -6.868,-3.186c-3.837,0 -5.689,1.577 -6.766,2.784c-2.188,2.515 -2.255,5.77 -2.255,6.843c0,3.957 1.817,7.379 5.723,8.586c1.379,0.436 2.625,0.469 3.163,0.469c1.314,0 4.68,-0.234 7.272,-3.085c0.404,-0.47 1.683,-2.103 1.683,-4.017l-4.107,0.025c-0.235,0.437 -1.224,3.12 -4.443,3.12l0,0ZM75.907,4.595c2.445,0.019 5.693,0.61 6.853,3.086c0.201,0.47 0.369,0.939 0.369,1.946l0,12.946l-4.577,0l0,-1.577c-0.371,0.269 -0.707,0.504 -1.078,0.739c-0.639,0.436 -2.12,1.308 -4.309,1.308c-3.165,0 -4.612,-1.71 -5.184,-2.885c-0.37,-0.738 -0.572,-1.609 -0.572,-2.448c0,-3.154 2.827,-4.663 3.602,-4.998c1.313,-0.57 3.702,-1.04 7.036,-1.644l0,-0.972c0,-0.604 -0.102,-2.113 -1.986,-2.113c-1.515,0 -2.222,0.704 -2.491,1.274c-0.068,0.135 -0.169,0.403 -0.236,0.772l-5.185,0c0.068,-0.705 0.101,-2.215 1.415,-3.522c1.447,-1.409 3.365,-1.678 3.971,-1.778c1.011,-0.135 1.852,-0.135 2.256,-0.135l0.116,0.001ZM89.499,5.064l0.034,1.812c0.302,-0.369 0.505,-0.604 0.874,-0.906c0.674,-0.536 1.953,-1.376 4.074,-1.376c0.403,0 2.222,0.035 3.501,0.84c0.539,0.335 0.977,0.771 1.413,1.207c0.641,-0.536 0.876,-0.704 1.246,-0.939c0.607,-0.37 2.054,-1.108 3.973,-1.108c0.606,0 3.063,0.035 4.51,1.913c0.842,1.039 0.876,2.147 0.876,4.662l0,11.404l-5.151,0l0,-9.19c0,-1.812 0,-2.852 -0.471,-3.589c-0.404,-0.671 -1.211,-1.006 -1.952,-1.006c-0.438,0 -1.65,0.1 -2.29,1.241c-0.403,0.704 -0.37,1.442 -0.37,3.018l0,9.526l-5.15,0l0,-10.398c0,-1.677 -0.236,-2.415 -1.011,-2.918c-0.437,-0.302 -0.976,-0.436 -1.514,-0.436c-0.236,0 -0.909,0 -1.482,0.436c-1.076,0.805 -1.11,2.181 -1.11,3.321l0,9.995l-5.117,0l0,-17.509l5.117,0ZM78.047,14.222c-0.001,1.91 -0.09,3.815 -1.85,5.062c-0.275,0.196 -1.22,0.824 -2.321,0.824c-0.64,0 -1.105,-0.194 -1.44,-0.434c-1.118,0.784 -1.952,1.298 -1.952,1.298l-0.625,-0.864c0,0 2.71,-1.005 6.939,-4.743c-2.072,1.662 -3.797,2.759 -5.071,3.464c-0.141,-0.349 -0.172,-0.695 -0.172,-0.799c0,-0.784 0.392,-1.647 1.888,-2.274c0.236,-0.117 0.472,-0.196 0.708,-0.275l3.896,-1.293l0,0.034ZM58.381,15.862c-1.92,0 -3.489,-0.428 -3.603,-0.969c-0.004,0.021 -0.007,0.042 -0.007,0.063c0,0.569 1.617,1.088 3.61,1.088c1.994,0 3.61,-0.519 3.61,-1.088c0,-0.021 -0.003,-0.042 -0.007,-0.063c-0.113,0.541 -1.683,0.969 -3.603,0.969l0,0ZM61.459,11.672c-0.067,-0.57 -0.169,-2.348 -1.919,-3.119c-0.707,-0.336 -1.279,-0.336 -1.582,-0.336c-2.054,0 -2.996,1.51 -3.265,2.114c-0.136,0.302 -0.27,0.67 -0.405,1.341l7.171,0Z" style="fill:#8bc440;"/></g></svg>