<?xml version="1.0" standalone="no"?><!DOCTYPE svg PUBLIC "-//W3C//DTD SVG 1.1//EN" "http://www.w3.org/Graphics/SVG/1.1/DTD/svg11.dtd"><svg width="100%" height="100%" viewBox="0 0 36 42" version="1.1" xmlns="http://www.w3.org/2000/svg" xmlns:xlink="http://www.w3.org/1999/xlink" xml:space="preserve" style="fill-rule:evenodd;clip-rule:evenodd;stroke-linejoin:round;stroke-miterlimit:1.41421;"><g id="small-notes"><g><path id="back-page" d="M32.062,2c0,-1.104 -0.896,-2 -2,-2l-28,0c-1.104,0 -2,0.896 -2,2l0,38c0,1.104 0.896,2 2,2l28,0c1.104,0 2,-0.896 2,-2l0,-38Z" style="fill:#f3ce00;"/><path d="M34.958,38l-27.537,0c-0.992,0 -2.359,-0.582 -2.962,-1.366c0,0 -2.2,-1.38 -3.525,-9.978c-0.515,-3.342 -0.872,-7.569 -0.872,-12.718c0,-4.685 0,-9.938 0,-9.938l32,0c0,0 -0.059,10.84 0,11.348c0.189,17.649 3.675,21.315 3.675,21.315c0.455,0.738 0.113,1.337 -0.779,1.337ZM25.07,24c0.537,0 0.992,-0.448 0.992,-1c0,-0.556 -0.444,-1 -0.992,-1l-18.016,0c-0.537,0 -0.992,0.448 -0.992,1c0,0.556 0.444,1 0.992,1l18.016,0ZM25.07,18c0.537,0 0.992,-0.448 0.992,-1c0,-0.556 -0.444,-1 -0.992,-1l-18.016,0c-0.537,0 -0.992,0.448 -0.992,1c0,0.556 0.444,1 0.992,1l18.016,0ZM25.07,12c0.537,0 0.992,-0.448 0.992,-1c0,-0.556 -0.444,-1 -0.992,-1l-18.016,0c-0.537,0 -0.992,0.448 -0.992,1c0,0.556 0.444,1 0.992,1l18.016,0Z" style="fill:#ffe54c;"/></g></g></svg>